# xmcd CD database file
#
# Track frame offsets:
#	150
#	20791
#	43951
#
# Disc length: 859 seconds
#
# Revision: 0
# Processed by: cddbd v1.5.1PL0 Copyright (c) Steve Scherf et al.
# Submitted via: CDex 1.50beta8
#
DISCID=25035903
DTITLE=TiA - Promise
DYEAR=2005
DGENRE=JPop
TTITLE0=Promise
TTITLE1=大切なもの
TTITLE2=Promise(Instrumental)
EXTD=YEAR: 2005
EXTT0=
EXTT1=
EXTT2=
PLAYORDER=
